<svg viewBox="0 0 1200.1383 688.4787" xmlns="http://www.w3.org/2000/svg" id="Square_Logo_-_White"><defs><style>.cls-1{fill:none;stroke:#fff;stroke-miterlimit:10;stroke-width:8px;}.cls-2{fill:#fff;}</style></defs><g id="SHIFTEAVE"><path d="M164.4164,576.6915c-27.538-3.741-45.5885-7.5763-45.5885-26.0745,0-5.3407,2.0083-10.3028,5.6576-13.9806l1.7672-1.5705c3.5038-2.7458,7.6905-4.1967,12.1125-4.1967h48.0884c4.4299,0,8.6585,1.4915,11.949,4.2332l1.9778,1.5825c3.6194,3.6739,5.6111,8.6153,5.6111,13.9321,0,3.0055,2.5398,5.4503,5.6609,5.4503,2.955,0,5.451-2.496,5.451-5.4503v-.2106c0-8.0559-3.2759-15.9517-8.9873-21.6625l-.7115-.7082c-5.8024-5.3387-13.2425-8.2785-20.951-8.2785h-48.0884c-7.7085,0-15.1485,2.9398-21.032,8.3556l-.6683.669c-5.8549,6.0881-8.9495,13.6385-8.9495,21.8352,0,27.1109,27.3527,32.8489,53.0491,36.0696,3.5045.8404,7.5969,1.3812,11.9258,1.9532,19.4628,2.5724,34.351,5.9214,34.351,23.2942,0,10.8887-8.7648,19.7479-19.5379,19.7479h-50.6083c-5.1687,0-10.0231-1.9804-13.6916-5.5812l-.5109-.6803-.1535-.1867c-3.3895-3.7662-5.1813-8.3655-5.1813-13.2997,0-3.0055-2.5398-5.4503-5.6616-5.4503-2.9544,0-5.4503,2.496-5.4503,5.4503l.0013,1.1354c.2272,7.2786,3.2135,14.4609,8.1981,19.7339l.5341.7128.2531.291c5.7108,5.7114,13.6066,8.9873,21.6625,8.9873h50.6083c16.9004,0,30.6499-13.8438,30.6499-30.8605,0-27.9426-28.5485-31.8205-53.7367-35.2425Z" class="cls-2"></path><path d="M332.053,519.9665c-2.955,0-5.4517,2.4966-5.4517,5.4517v50.4025h-82.3331v-50.4025c0-3.0062-2.5398-5.4517-5.6616-5.4517-2.955,0-5.451,2.4966-5.451,5.4517v111.9247c0,2.955,2.496,5.4517,5.451,5.4517,3.1218,0,5.6616-2.4455,5.6616-5.4517v-50.4108h82.3331v50.4108c0,2.955,2.4966,5.4517,5.4517,5.4517s5.451-2.4966,5.451-5.4517v-111.9247c0-2.955-2.496-5.4517-5.451-5.4517Z" class="cls-2"></path><path d="M362.0843,519.9665c-2.955,0-5.451,2.4966-5.451,5.4517v111.9247c0,2.955,2.496,5.4517,5.451,5.4517,3.1218,0,5.6616-2.4455,5.6616-5.4517v-111.9247c0-3.0062-2.5398-5.4517-5.6616-5.4517Z" class="cls-2"></path><path d="M437.5254,531.0791h20.7889c3.0062,0,5.4517-2.5398,5.4517-5.6609,0-2.955-2.4966-5.4517-5.4517-5.4517h-20.7889c-28.2682,0-51.6261,23.0563-52.0686,51.3969l-.0007,65.9794c0,2.955,2.496,5.4517,5.451,5.4517,3.1218,0,5.6616-2.4455,5.6616-5.4517v-43.8171h61.7455c2.955,0,5.4517-2.496,5.4517-5.4503,0-3.1211-2.4455-5.6609-5.4517-5.6609h-61.7455v-10.3787c0-22.5833,18.3733-40.9566,40.9566-40.9566Z" class="cls-2"></path><path d="M580.0581,519.9665h-96.806c-2.955,0-5.451,2.4966-5.451,5.4517,0,3.1211,2.4455,5.6609,5.451,5.6609h42.8474v106.2637c0,3.0062,2.5392,5.4517,5.6609,5.4517,2.955,0,5.451-2.4966,5.451-5.4517v-106.2637h42.8467c3.0062,0,5.4517-2.5398,5.4517-5.6609,0-2.955-2.4966-5.4517-5.4517-5.4517Z" class="cls-2"></path><path d="M751.7418,520.2296l-.5315-.0525c-2.9258,0-5.2417,1.9107-5.635,4.6591l-14.6875,106.3906c-.1913,1.148-1.3327,1.5048-1.726,1.5048-.5448,0-1.0058-.3607-1.2317-.962l-38.8486-103.7352c-1.7326-4.6265-6.2343-7.8573-10.9472-7.8573-4.988,0-9.3674,3.0833-11.1585,7.8566l-38.8486,103.7359c-.2392.6404-.9181.962-1.2304.962-.7122,0-1.5147-.4637-1.7233-1.4981l-14.6928-106.4099c-.3906-2.7358-2.7066-4.6465-5.6337-4.6465l-.4464.0365c-2.5338.4212-4.3741,2.6102-4.3741,5.2045v.6092l14.9227,106.756c.5846,5.849,5.833,10.431,11.9477,10.431,4.8591,0,9.1561-3.0833,10.9485-7.8566l38.8021-103.6203c.2325-.5448.97-1.0789,1.4828-1.0789.279.0153,1.0311.4943,1.2357.964l38.8314,103.686c1.6237,4.6026,6.0297,7.6952,10.9645,7.6952,5.9951,0,11.3538-4.5787,11.9344-10.1141l14.9094-106.6749.0266-.7966c0-2.4707-1.8442-4.7016-4.2904-5.1886Z" class="cls-2"></path><path d="M839.1533,533.3572c-1.6941-3.8752-4.3329-7.169-7.6294-9.5241l-.7109-.5069h-.1608c-3.4626-2.1997-7.5457-3.3596-11.8401-3.3596-4.1681,0-8.0307,1.049-11.48,3.1185l-.287.1721-.4451.4451c-3.5662,2.3053-6.2383,5.5699-7.9377,9.6962l-42.5982,101.9846c-.4504.9454-.4504,1.6509-.4504,2.1704,0,2.8899,2.3518,5.2411,5.2417,5.2411,2.2641,0,4.0273-1.1593,4.8205-3.1424l12.1098-28.9863,1.1342-2.7214,2.1003-5.0393,1.1342-2.7214,2.7733-6.6603h67.9466l2.7947,6.6603,1.137,2.7214,2.1053,5.0393,1.137,2.7214,12.0274,28.787c.5514,2.0409,2.3598,3.3417,4.6943,3.3417,2.9391,0,5.2404-2.395,5.2404-5.4517v-1.3845l-42.8573-102.6011ZM789.5533,582.4144l18.7501-45.0306c.7906-1.8947,2.2495-3.6254,4.2479-5.0816l.8198-.5468,1.1467-.4298c1.4855-.5567,3.0507-.8763,4.2944-.8763,2.2309,0,4.394.5986,6.2768,1.734l.4518.3601c1.6436,1.0457,3.0387,2.8109,3.7802,4.8471l18.8922,45.0239h-58.6597Z" class="cls-2"></path><path d="M978.7482,519.9665c-2.1817,0-4.0658,1.3393-4.6717,3.2879l-42.8228,102.2384c-.6976,1.914-2.094,3.6805-3.735,4.7242l-.4504.3594c-1.8801,1.136-4.0446,1.7353-6.2781,1.7353-1.245,0-2.8102-.3196-4.293-.8763l-1.1507-.4318-.865-.576c-1.811-1.152-3.3404-2.9922-4.1987-5.0504l-42.6288-102.2656-.0771-.1694c-.9168-1.8356-2.7345-2.9756-4.7448-2.9756-2.8899,0-5.2404,2.3511-5.2404,5.2417,0,.5574,0,1.5048.5381,2.381l42.5278,101.8146c1.807,4.1289,4.5415,7.46,7.9191,9.6537l.4464.4464.287.1721c3.448,2.0695,7.3105,3.1185,11.48,3.1185,4.394,0,8.5635-1.2131,12.0726-3.5111l.6378-.3554c3.2978-2.3545,5.9366-5.6483,7.6493-9.566l42.6288-102.055.2099-.5036v-1.3852c0-3.0567-2.3013-5.4517-5.2404-5.4517Z" class="cls-2"></path><path d="M1080.1575,631.6819h-41.3679c-22.5826,0-40.956-18.3733-40.956-40.9566v-3.7881h74.9747c3.0055,0,5.4517-2.5398,5.4517-5.6623,0-2.9544-2.4966-5.4503-5.4517-5.4503h-74.9747v-3.7888c0-22.5833,18.3733-40.9566,40.956-40.9566h41.3679c3.1743,0,5.6616-2.4867,5.6616-5.6609,0-3.0062-2.5392-5.4517-5.6616-5.4517h-41.3679c-28.2243,0-52.0692,23.8449-52.0692,52.0692v18.6895c0,28.2243,23.8449,52.0692,52.0692,52.0692h41.3679c3.1225,0,5.6616-2.4455,5.6616-5.4517,0-3.1743-2.4873-5.6609-5.6616-5.6609Z" class="cls-2"></path></g><g id="W"><path d="M1163.4892,144.6855c-9.3222-10.513-22.3257-18.9693-36.525-12.6674-15.2154,6.7529-25.3267,23.7757-33.3085,37.423-12.8021,21.889-23.0286,45.2437-33.2831,68.3768-11.8984,26.8417-23.5129,53.8206-36.4487,80.1941-12.3878,25.2561-25.8794,50.2816-42.8054,72.8748-13.8838,18.5324-30.704,36.3799-52.1047,46.3035-23.7793,11.0267-49.3263,9.0799-71.4452-4.9481-30.6419-19.4333-52.5573-51.4341-73.337-80.2754-21.0418-29.205-41.1527-61.3724-69.0154-84.805-10.2933-8.6567-22.4069-16.3034-36.0682-17.9842-23.6379-2.9083-44.9678,10.3273-60.8169,26.4353-9.7018,9.8603-18.0477,20.9841-25.884,32.3309" class="cls-1"></path><line y2="305.8363" x2="590.9548" y1="307.9489" x1="592.4524" class="cls-1"></line><path d="M1147.3359,120.5344c-240.5221-298.7124-225.1637,323.7681-416.5093,324.1044-46.7869.0822-97.6942-78.9087-138.3741-136.6895" class="cls-1"></path><path d="M26.6434,139.0648c21.198-18.8132,46.8345-5.5677,60.8258,14.2922,16.5526,23.4955,29.966,48.1608,41.8047,74.2699,21.2634,46.8944,38.7854,95.9256,66.9793,139.3797,14.0498,21.6544,30.784,41.6109,50.6757,58.2326,11.1791,9.3414,22.1463,17.4875,37.1007,19.1881,14.9079,1.6953,29.7492-2.3809,42.7432-9.2129,29.0918-15.2959,46.7458-41.3214,65.6494-67.1623,19.5549-26.7312,37.1926-54.9361,57.1335-81.3624,14.9822-19.8549,38.1376-37.0163,63.9842-37.8672,28.1589-.9271,51.8674,21.0922,68.1045,41.7369,4.3422,5.5209,8.3208,11.3169,12.0248,17.2759" class="cls-1"></path><path d="M26.5763,139.6068c27.9081-36.7802,60.3406-73.0841,107.016-36.4351,19.9609,15.6731,31.5719,38.7145,42.2836,61.0428,13.5072,28.1555,71.174,143.0793,86.152,173.8456,13.5364,27.8051,30.4243,57.3253,53.2228,78.7375,18.9516,17.7993,44.4958,31.8466,71.3917,26.9128,29.4438-5.4011,49.4339-30.0325,66.1928-52.5068,19.229-25.7866,36.8409-52.7093,55.926-78.5975,17.5294-23.7779,36.6763-53.15,65.55-64.1489,6.3524-2.4198,18.7196-3.1262,18.7196-3.1262,33.7659.7229,54.5888,31.7001,75.4118,54.933,36.4401,46.4658,62.4688,98.0945,109.3204,134.2345,83.2918,38.7215,140.5548-59.373,166.5835-121.3274,20.8229-46.4658,75.4832-170.3746,83.2918-185.8632,13.0143-23.2329,31.2344-46.4658,57.2631-43.8844,36.4401,0,59.8659,30.9772,79.3378,61.3092" class="cls-1"></path><path d="M33.3758,131.7873c240.5207-298.7124,228.9187,312.9335,428.8671,312.8163,51.0953-.0289,90.7419-78.9817,131.4219-136.7641" class="cls-1"></path></g></svg>